<?xml version="1.0" encoding="UTF-8" standalone="no"?>
<!-- Created with Inkscape (http://www.inkscape.org/) -->

<svg
   width="320"
   height="240"
   viewBox="0 0 320 240.00001"
   version="1.1"
   id="svg1"
   xml:space="preserve"
   sodipodi:docname="main_screen.svg"
   inkscape:version="1.4.3 (0d15f75042, 2025-12-25)"
   xmlns:inkscape="http://www.inkscape.org/namespaces/inkscape"
   xmlns:sodipodi="http://sodipodi.sourceforge.net/DTD/sodipodi-0.dtd"
   xmlns="http://www.w3.org/2000/svg"
   xmlns:svg="http://www.w3.org/2000/svg"><sodipodi:namedview
     id="namedview1"
     pagecolor="#505050"
     bordercolor="#eeeeee"
     borderopacity="1"
     inkscape:showpageshadow="0"
     inkscape:pageopacity="0"
     inkscape:pagecheckerboard="0"
     inkscape:deskcolor="#505050"
     inkscape:zoom="2.3373288"
     inkscape:cx="215.84469"
     inkscape:cy="104.17875"
     inkscape:window-width="3418"
     inkscape:window-height="1338"
     inkscape:window-x="0"
     inkscape:window-y="0"
     inkscape:window-maximized="1"
     inkscape:current-layer="g5" /><defs
     id="defs1" /><rect
     style="fill:#000000;stroke:#000000;stroke-width:1.99999;stroke-linecap:square"
     id="rect2"
     width="318"
     height="238"
     x="1"
     y="1" /><g
     id="g5"
     transform="translate(3.1290158,-16)"><rect
       style="fill:none;stroke:#ffcc00;stroke-width:4;stroke-linecap:square;stroke-dasharray:none"
       id="rect1"
       width="170.09669"
       height="154.13879"
       x="128.95166"
       y="58.930603"
       ry="30.827757"
       rx="30.827759" /><path
       style="fill:none;stroke:#ff0000;stroke-width:6;stroke-linecap:round;stroke-dasharray:none"
       d="M 276.77683,74.053254 H 151.22317"
       id="path1" /><path
       style="fill:#ff0000;stroke:#ff0000;stroke-width:6;stroke-linecap:round;stroke-dasharray:none"
       d="M 276.77683,198.6106 H 151.22317"
       id="path2" /><g
       id="g21"
       transform="translate(53.041019,16)"
       style="stroke:#4d4d4d"><path
         style="fill:none;stroke:#4d4d4d;stroke-width:6;stroke-linecap:round;stroke-linejoin:round;stroke-dasharray:none"
         d="m 96.986301,68.767123 8.004829,13.864769 7.94053,-13.753398"
         id="path14" /><path
         style="fill:none;stroke:#4d4d4d;stroke-width:6;stroke-linecap:round;stroke-linejoin:round;stroke-dasharray:none"
         d="m 112.9863,68.767123 8.00483,13.864769 7.94053,-13.753398"
         id="path15" /><path
         style="fill:none;stroke:#4d4d4d;stroke-width:6;stroke-linecap:round;stroke-linejoin:round;stroke-dasharray:none"
         d="m 128.9863,68.767123 8.00483,13.864769 7.94053,-13.753398"
         id="path16" /><path
         style="fill:none;stroke:#4d4d4d;stroke-width:6;stroke-linecap:round;stroke-linejoin:round;stroke-dasharray:none"
         d="m 144.9863,68.767123 8.00483,13.864769 7.94053,-13.753398"
         id="path17" /><path
         style="fill:none;stroke:#4d4d4d;stroke-width:6;stroke-linecap:round;stroke-linejoin:round;stroke-dasharray:none"
         d="m 160.9863,68.767123 8.00483,13.864769 7.94053,-13.753398"
         id="path18" /><path
         style="fill:none;stroke:#4d4d4d;stroke-width:6;stroke-linecap:round;stroke-linejoin:round;stroke-dasharray:none"
         d="m 176.9863,68.767123 8.00483,13.864769 7.94053,-13.753398"
         id="path19" /><path
         style="fill:none;stroke:#4d4d4d;stroke-width:6;stroke-linecap:round;stroke-linejoin:round;stroke-dasharray:none"
         d="m 192.9863,68.767123 8.00483,13.864769 7.94053,-13.753398"
         id="path20" /><path
         style="fill:none;stroke:#4d4d4d;stroke-width:6;stroke-linecap:round;stroke-linejoin:round;stroke-dasharray:none"
         d="m 208.9863,68.767123 8.00483,13.864769 7.94053,-13.753398"
         id="path21" /></g><text
       xml:space="preserve"
       style="font-size:26.6667px;text-align:center;writing-mode:lr-tb;direction:ltr;text-anchor:middle;fill:#ffdd55;stroke:none;stroke-width:6;stroke-linecap:round;stroke-linejoin:round;stroke-dasharray:none"
       x="62.896332"
       y="187.98567"
       id="text23"><tspan
         x="62.896332"
         y="187.98567"
         id="tspan24"
         style="font-style:normal;font-variant:normal;font-weight:normal;font-stretch:normal;font-family:'ShureTechMono Nerd Font Mono';-inkscape-font-specification:'ShureTechMono Nerd Font Mono'">00:13:25</tspan></text><text
       xml:space="preserve"
       style="font-size:14.6667px;text-align:center;writing-mode:lr-tb;direction:ltr;text-anchor:middle;fill:#ffffff;stroke:none;stroke-width:6;stroke-linecap:round;stroke-linejoin:round;stroke-dasharray:none"
       x="92.853783"
       y="210.39656"
       id="text29"><tspan
         id="tspan29"
         x="62.522995"
         y="210.39656"
         style="font-style:normal;font-variant:normal;font-weight:normal;font-stretch:normal;font-size:14.6667px;font-family:'ShureTechMono Nerd Font Mono';-inkscape-font-specification:'ShureTechMono Nerd Font Mono'">01:00:00</tspan></text><text
       xml:space="preserve"
       style="font-size:40.7208px;text-align:center;writing-mode:lr-tb;direction:ltr;text-anchor:middle;fill:#ffffff;stroke:none;stroke-width:5.99999;stroke-linecap:round;stroke-linejoin:round;stroke-dasharray:none"
       x="103.94961"
       y="98.498337"
       id="text22"
       transform="scale(1.0354298,0.96578252)"><tspan
         id="tspan22"
         x="64.796463"
         y="98.498337"
         style="font-style:normal;font-variant:normal;font-weight:normal;font-stretch:normal;font-family:'ShureTechMono Nerd Font Mono';-inkscape-font-specification:'ShureTechMono Nerd Font Mono';stroke:none;stroke-width:5.99999">200º</tspan></text><text
       xml:space="preserve"
       style="font-size:14.6667px;text-align:center;writing-mode:lr-tb;direction:ltr;text-anchor:middle;fill:#ff0000;stroke:#ffcc00;stroke-width:6;stroke-linecap:round;stroke-linejoin:round;stroke-dasharray:none"
       x="80.823044"
       y="115.1926"
       id="text30"><tspan
         id="tspan30"
         x="66.720978"
         y="115.1926"
         style="font-style:normal;font-variant:normal;font-weight:normal;font-stretch:normal;font-family:'ShureTechMono Nerd Font Mono';-inkscape-font-specification:'ShureTechMono Nerd Font Mono';stroke:none">200º</tspan></text><g
       id="g4"
       transform="translate(-2.1391941,98.40293)"><path
         d="m 274.76232,32.725533 c -0.27479,0.0073 -0.51582,-0.195244 -0.55439,-0.472439 -0.041,-0.289246 0.15427,-0.5568 0.43869,-0.612237 -0.31335,-1.776447 -1.16904,-2.755069 -2.07293,-3.789121 -0.70384,-0.805071 -1.43418,-1.641468 -2.01026,-2.873174 -0.56644,-1.212424 -0.87738,-2.465822 -0.86774,-3.767428 0.012,-1.301613 0.34228,-2.641783 1.06057,-4.02775 0.005,-0.0096 0.01,-0.0169 0.0145,-0.02653 v 0 c 0.94246,-1.595673 2.26093,-2.661059 3.72886,-3.258834 1.23171,-0.503765 2.56947,-0.674906 3.88071,-0.554382 1.30644,0.120516 2.58635,0.530279 3.70477,1.190723 1.42212,0.841226 2.59116,2.089804 3.23473,3.666194 0.34709,0.853277 0.58331,1.805378 0.61224,2.849071 0.029,1.038872 -0.14945,2.159703 -0.62911,3.345613 -0.64116,1.588442 -1.48962,2.574287 -2.28263,3.497464 -0.73035,0.850867 -1.41008,1.641468 -1.78851,2.853892 0.21452,0.05063 0.38325,0.226578 0.417,0.457977 0.041,0.298887 -0.16874,0.576082 -0.46761,0.617058 l -0.18561,0.02653 c -0.0337,0.262733 -0.0554,0.544749 -0.0651,0.846047 l 0.0603,-0.0096 c 0.29889,-0.04093 0.57608,0.16873 0.61706,0.467618 0.041,0.29888 -0.16873,0.576083 -0.46761,0.617058 l -0.18802,0.02653 c 0.002,0.03616 0.005,0.07231 0.007,0.108473 v 0 c 0.0169,0.212108 0.0192,0.416993 0.007,0.612229 l 0.0313,-0.0049 c 0.30129,-0.03616 0.57367,0.178372 0.61223,0.477251 0.0362,0.301307 -0.17836,0.573673 -0.47725,0.612238 l -0.40495,0.05063 c -0.28925,0.749626 -0.80506,1.320888 -1.41489,1.672804 -0.41941,0.243448 -0.88461,0.38325 -1.35223,0.412175 -0.47484,0.02894 -0.95451,-0.06026 -1.3932,-0.272372 -0.50136,-0.245859 -0.94969,-0.653211 -1.27509,-1.238943 -0.15668,-0.07951 -0.27237,-0.233801 -0.29648,-0.421814 -0.01,-0.07474 -0.002,-0.14703 0.0169,-0.214527 -0.094,-0.279605 -0.1639,-0.585715 -0.2097,-0.923168 l -0.0169,0.0024 c -0.29889,0.04093 -0.57609,-0.16873 -0.61706,-0.46761 -0.041,-0.298888 0.16873,-0.576091 0.46762,-0.617066 l 0.13015,-0.01925 c 0.01,-0.294075 0.007,-0.573672 -0.005,-0.838815 z M 264.65076,22.312675 c -0.28202,0.0073 -0.51582,-0.212108 -0.52546,-0.494132 -0.01,-0.282007 0.21211,-0.515816 0.49412,-0.525458 l 2.09704,-0.07231 c 0.28201,-0.0096 0.51582,0.212116 0.52546,0.494123 0.01,0.282016 -0.21211,0.515825 -0.49413,0.525466 z m 26.15266,-2.075334 c 0.2796,-0.02896 0.53028,0.175953 0.55921,0.455558 0.0289,0.279606 -0.17596,0.530287 -0.45557,0.559211 l -2.08739,0.219347 c -0.27961,0.02896 -0.53028,-0.175961 -0.5592,-0.455567 -0.029,-0.279605 0.17595,-0.530286 0.45555,-0.55921 z m -3.80117,-8.549632 c 0.15667,-0.233809 0.47243,-0.296478 0.70624,-0.139799 0.2338,0.156671 0.29647,0.472431 0.13979,0.70624 l -1.16662,1.745112 c -0.15667,0.233809 -0.47243,0.296478 -0.70624,0.139807 -0.23381,-0.156679 -0.29648,-0.472439 -0.1398,-0.706248 z m -8.98591,-3.066008 c 0.007,-0.2820156 0.24103,-0.5037731 0.52064,-0.4965422 0.28201,0.00728 0.50377,0.2410401 0.49654,0.5206454 l -0.0531,2.0970348 c -0.007,0.282015 -0.24103,0.503765 -0.52064,0.496542 -0.28202,-0.0073 -0.50377,-0.24104 -0.49654,-0.520645 z m -10.54544,3.24679 c -0.20728,-0.192834 -0.21692,-0.515825 -0.0265,-0.72071 0.19284,-0.207288 0.51582,-0.216929 0.72071,-0.02653 l 1.53541,1.431763 c 0.2073,0.192833 0.21694,0.515824 0.0265,0.72071 -0.19283,0.207287 -0.51582,0.216928 -0.7207,0.02653 z m 8.19531,19.625336 4.4568,-0.63393 c 0.38325,-1.614963 1.21724,-2.586347 2.12113,-3.63486 0.74241,-0.862919 1.53301,-1.783686 2.1115,-3.215456 0.42423,-1.048514 0.5809,-2.031949 0.55679,-2.938253 -0.0241,-0.903895 -0.23139,-1.737882 -0.53992,-2.492336 -0.55439,-1.357043 -1.56916,-2.436898 -2.80809,-3.169652 -0.99067,-0.585724 -2.12114,-0.94969 -3.27572,-1.053334 -1.14975,-0.106062 -2.3236,0.04578 -3.40587,0.486893 -1.26786,0.518235 -2.40796,1.439001 -3.2275,2.824968 -0.63634,1.234116 -0.9304,2.415205 -0.94005,3.55049 -0.01,1.142524 0.26756,2.248894 0.77132,3.326339 0.51342,1.09913 1.19796,1.88009 1.85359,2.632134 1.02201,1.171448 1.98857,2.27781 2.32602,4.316997 z m 4.27602,0.498953 -4.16273,0.590536 c 0.012,0.265143 0.0169,0.542338 0.012,0.836405 l 4.1097,-0.583313 c 0.005,-0.296478 0.0169,-0.578493 0.041,-0.843628 z m -4.12899,2.530892 c 0.029,0.221758 0.0723,0.424233 0.12776,0.612238 l 3.98917,-0.491714 c 0.0265,-0.207295 0.0313,-0.426634 0.0121,-0.660443 v 0 -0.0049 l -0.002,-0.04093 z m 0.6942,1.648708 c 0.15426,0.161499 0.3254,0.286836 0.50617,0.373608 0.2772,0.134978 0.58332,0.190423 0.88461,0.173543 0.31094,-0.01925 0.61947,-0.113285 0.90149,-0.277187 0.26514,-0.154269 0.50377,-0.368795 0.69419,-0.638751 z"
         id="path1-5"
         style="fill:#ffcc00;fill-opacity:1;stroke-width:6.51042" /><path
         style="fill:#ffcc00;fill-opacity:1;stroke:none;stroke-width:2;stroke-linecap:square;stroke-opacity:0"
         d="m 275.88216,30.451078 c -0.26727,-1.307061 -0.68846,-2.113616 -1.76648,-3.382749 -1.44395,-1.699939 -1.74346,-2.141047 -2.14907,-3.165018 -0.56552,-1.427684 -0.64257,-2.788238 -0.23898,-4.219891 0.49181,-1.744611 1.57128,-3.065626 3.12527,-3.824616 1.75106,-0.855234 3.88231,-0.831992 5.75885,0.06281 1.90976,0.910635 3.1128,2.480078 3.46067,4.514658 0.0688,0.402204 0.078,0.582343 0.0598,1.16889 -0.0317,1.024811 -0.21991,1.767181 -0.70088,2.765196 -0.37172,0.771314 -0.75307,1.321999 -1.6258,2.347708 -1.14406,1.344608 -1.46683,1.852264 -1.79999,2.831027 l -0.16165,0.47492 -1.86153,0.265935 c -1.02384,0.146264 -1.91022,0.266873 -1.96974,0.268018 -0.087,0.0017 -0.11258,-0.01931 -0.13048,-0.10688 z"
         id="path3" /></g><path
       d="m 214,143.93844 a 3.7054942,3.7054942 0 1 0 3.70549,3.7055 A 3.7054942,3.7054942 0 0 0 214,143.93844 m 1.85274,-33.34944 c 16.67473,0 17.04528,13.22861 8.26326,17.6011 a 12.450461,12.450461 0 0 0 -6.0029,9.15256 11.746418,11.746418 0 0 1 4.55775,3.37201 c 13.56211,-7.41099 28.38409,-4.48365 28.38409,8.78202 0,16.67472 -13.26567,17.04528 -17.60109,8.26325 a 12.746901,12.746901 0 0 0 -9.26374,-6.0029 12.005802,12.005802 0 0 1 -3.372,4.55776 c 7.41099,13.67327 4.44659,28.38409 -8.81908,28.38409 -16.52651,0 -16.93411,-13.26567 -8.15209,-17.63816 a 12.82101,12.82101 0 0 0 6.0029,-9.07846 11.116483,11.116483 0 0 1 -4.63187,-3.40906 c -13.67327,7.33689 -28.27291,4.4466 -28.27291,-8.78202 0,-16.67472 13.11745,-17.08233 17.48993,-8.3003 a 12.561626,12.561626 0 0 0 9.18963,5.96585 10.782988,10.782988 0 0 1 3.40905,-4.52071 c -7.37393,-13.52505 -4.4466,-28.34703 8.74497,-28.34703 z"
       id="path1-2"
       style="fill:#ffcc00;fill-opacity:1;stroke-width:33.3333" /></g></svg>
